<?xml version="1.0" encoding="utf-8"?>
<!-- Generator: Adobe Illustrator 23.0.0, SVG Export Plug-In . SVG Version: 6.00 Build 0)  -->
<svg version="1.1" id="Layer_1" xmlns="http://www.w3.org/2000/svg" xmlns:xlink="http://www.w3.org/1999/xlink" x="0px" y="0px"
	 viewBox="0 0 247.5 285.8" style="enable-background:new 0 0 247.5 285.8;" xml:space="preserve">
<style type="text/css">
	.st0{fill:#D68505;}
	.st1{fill:#FFFFFF;}
	.st2{fill:#DD5F0A;}
	.st3{fill:#07293E;}
	.st4{font-family:'Montserrat-ExtraBold';}
	.st5{font-size:39.9px;}
</style>
<title>Logo</title>
<g id="OBJECTS">
	<path class="st0" d="M35.3,19.1l73-12.9c8.1-1.4,15.8,4,17.2,12.1l27.8,157.6c1.4,8.1-4,15.8-12.1,17.2l-73,12.9
		c-8.1,1.4-15.8-4-17.2-12.1L23.2,36.3C21.8,28.2,27.2,20.5,35.3,19.1z"/>
	<path class="st1" d="M86.4,23.1l-24.8,4.4c-1.4,0.3-2.7-0.6-3-2c0,0,0,0,0,0l0,0c-0.3-1.4,0.7-2.7,2.1-3c0,0,0,0,0,0l24.8-4.4
		c1.4-0.3,2.7,0.6,3,2c0,0,0,0,0,0l0,0C88.7,21.5,87.8,22.9,86.4,23.1z"/>
	
		<rect x="43.5" y="31.5" transform="matrix(0.9848 -0.1736 0.1736 0.9848 -17.1292 16.9751)" class="st1" width="89.9" height="149.7"/>
	<path class="st2" d="M183.6,181.5L108.9,168c-4.2-0.7-7.4-4.3-7.6-8.6l-1.2-62.4l116.5,21l-22.9,58
		C192.1,180.1,187.9,182.3,183.6,181.5z"/>
	<path class="st2" d="M213.9,135.3L96.6,114.1c-4.7-0.9-7.9-5.4-7-10.1l0,0c0.9-4.7,5.4-7.9,10.1-7L217,118.1
		c4.7,0.9,7.9,5.4,7,10.1c0,0,0,0,0,0l0,0C223.1,132.9,218.6,136.1,213.9,135.3z"/>
	<path class="st3" d="M114.9,156.5c-1.2-0.2-2.1-1.4-1.8-2.6l4-22.4c0.2-1.2,1.4-2.1,2.6-1.8c1.2,0.2,2.1,1.4,1.8,2.6l-4,22.4
		C117.3,155.9,116.1,156.7,114.9,156.5z"/>
	<path class="st3" d="M182,168.6c-1.2-0.2-2.1-1.4-1.8-2.6c0,0,0,0,0,0l4-22.4c0.2-1.2,1.4-2.1,2.6-1.8c1.2,0.2,2.1,1.4,1.8,2.6
		c0,0,0,0,0,0l-4,22.4C184.5,168,183.3,168.8,182,168.6z"/>
	<path class="st3" d="M165.2,165.6c-1.2-0.2-2.1-1.4-1.8-2.6l4-22.4c0.2-1.2,1.4-2.1,2.6-1.8c0,0,0,0,0,0c1.2,0.2,2.1,1.4,1.8,2.6
		l-4,22.4C167.7,165,166.5,165.8,165.2,165.6C165.3,165.6,165.3,165.6,165.2,165.6z"/>
	<path class="st3" d="M148.4,162.6c-1.2-0.2-2.1-1.4-1.8-2.6c0,0,0,0,0,0l4-22.4c0.2-1.2,1.4-2.1,2.6-1.8c0,0,0,0,0,0
		c1.2,0.2,2.1,1.4,1.8,2.6c0,0,0,0,0,0l-4,22.4C150.9,162,149.7,162.8,148.4,162.6C148.5,162.6,148.5,162.6,148.4,162.6z"/>
	<path class="st3" d="M131.6,159.5c-1.2-0.2-2.1-1.4-1.8-2.6l4-22.4c0.2-1.2,1.4-2.1,2.6-1.8c1.2,0.2,2.1,1.4,1.8,2.6l-4,22.4
		C134.1,158.9,132.9,159.7,131.6,159.5z"/>
	<path class="st2" d="M154,86.4l-23.7,27.9c-1.6,1.9-4.5,2.2-6.4,0.5l0,0c-1.9-1.6-2.2-4.5-0.5-6.4l23.7-28c1.6-1.9,4.5-2.2,6.4-0.5
		l0,0C155.4,81.6,155.7,84.5,154,86.4C154,86.4,154,86.4,154,86.4z"/>
	<path class="st2" d="M169.6,89.2l12.8,34.3c0.9,2.4,3.5,3.6,5.8,2.7c0,0,0,0,0,0l0,0c2.4-0.9,3.6-3.5,2.7-5.8c0,0,0,0,0,0L178.2,86
		c-0.9-2.4-3.5-3.6-5.9-2.7l0,0C169.9,84.2,168.7,86.8,169.6,89.2z"/>
	<path class="st2" d="M187.3,39.3c0-6-6.1-10.9-11.5-7.6c-4.3,2.6-8.2,7.6-8.2,7.6c-2.2-2.8-4.8-5.3-7.8-7.4
		c-5.5-3.4-11.9,1.2-11.9,7.4c0,10.9,19.7,25,19.7,25S187.3,50.2,187.3,39.3z"/>
</g>
<g id="TEXTS">
	<text transform="matrix(1 0 0 1 43.9352 239.5304)" class="st2 st4 st5">E</text>
	<text transform="matrix(1 0 0 1 69.9452 239.5304)" class="st2 st4 st5">-</text>
	<text transform="matrix(1 0 0 1 84.9452 239.5304)" class="st2 st4 st5">S</text>
	<text transform="matrix(1 0 0 1 110.7652 239.5304)" class="st2 st4 st5">t</text>
	<text transform="matrix(1 0 0 1 127.9552 239.5304)" class="st2 st4 st5">o</text>
	<text transform="matrix(1 0 0 1 154.5252 239.5304)" class="st2 st4 st5">r</text>
	<text transform="matrix(1 0 0 1 171.9252 239.5304)" class="st2 st4 st5">e</text>
</g>
</svg>
