<?xml version="1.0" encoding="utf-8"?>
<!-- Generator: Adobe Illustrator 23.0.0, SVG Export Plug-In . SVG Version: 6.00 Build 0)  -->
<svg version="1.1" id="Layer_1" xmlns="http://www.w3.org/2000/svg" xmlns:xlink="http://www.w3.org/1999/xlink" x="0px" y="0px"
	 viewBox="0 0 247.5 285.8" style="enable-background:new 0 0 247.5 285.8;" xml:space="preserve">
<style type="text/css">
	.st0{fill:#07293E;}
	.st1{fill:#FFFFFF;}
	.st2{fill:#FCA408;}
	.st3{fill:#35B3F1;}
	.st4{fill:#D68505;}
	.st5{font-family:'Montserrat-ExtraBold';}
	.st6{font-size:39.9px;}
	.st7{fill:#EA950C;}
	.st8{font-family:'Montserrat-Bold';}
	.st9{font-size:23px;}
</style>
<title>Logo</title>
<g id="OBJECTS">
	<path class="st0" d="M35.3,13.1l73-12.9c8.1-1.4,15.8,4,17.2,12.1l27.8,157.6c1.4,8.1-4,15.8-12.1,17.2l-73,12.9
		c-8.1,1.4-15.8-4-17.2-12.1L23.2,30.3C21.8,22.2,27.2,14.5,35.3,13.1z"/>
	<path class="st1" d="M86.4,17.1l-24.8,4.4c-1.4,0.3-2.7-0.6-3-2c0,0,0,0,0,0l0,0c-0.3-1.4,0.7-2.7,2.1-3c0,0,0,0,0,0l24.8-4.4
		c1.4-0.3,2.7,0.6,3,2c0,0,0,0,0,0l0,0C88.7,15.5,87.8,16.9,86.4,17.1z"/>
	
		<rect x="43.5" y="25.5" transform="matrix(0.9848 -0.1736 0.1736 0.9848 -16.0873 16.884)" class="st1" width="89.9" height="149.7"/>
	<path class="st2" d="M183.6,175.5L108.9,162c-4.2-0.7-7.4-4.3-7.6-8.6l-1.2-62.4l116.5,21l-22.9,58
		C192.1,174.1,187.9,176.3,183.6,175.5z"/>
	<path class="st2" d="M213.9,129.3L96.6,108.1c-4.7-0.9-7.9-5.4-7-10.1l0,0c0.9-4.7,5.4-7.9,10.1-7L217,112.1
		c4.7,0.9,7.9,5.4,7,10.1c0,0,0,0,0,0l0,0C223.1,126.9,218.6,130.1,213.9,129.3z"/>
	<path class="st0" d="M114.9,150.5c-1.2-0.2-2.1-1.4-1.8-2.6l4-22.4c0.2-1.2,1.4-2.1,2.6-1.8c1.2,0.2,2.1,1.4,1.8,2.6l-4,22.4
		C117.3,149.9,116.1,150.7,114.9,150.5z"/>
	<path class="st0" d="M182,162.6c-1.2-0.2-2.1-1.4-1.8-2.6c0,0,0,0,0,0l4-22.4c0.2-1.2,1.4-2.1,2.6-1.8c1.2,0.2,2.1,1.4,1.8,2.6
		c0,0,0,0,0,0l-4,22.4C184.5,162,183.3,162.8,182,162.6z"/>
	<path class="st0" d="M165.2,159.6c-1.2-0.2-2.1-1.4-1.8-2.6l4-22.4c0.2-1.2,1.4-2.1,2.6-1.8c0,0,0,0,0,0c1.2,0.2,2.1,1.4,1.8,2.6
		l-4,22.4C167.7,159,166.5,159.8,165.2,159.6C165.3,159.6,165.3,159.6,165.2,159.6z"/>
	<path class="st0" d="M148.4,156.6c-1.2-0.2-2.1-1.4-1.8-2.6c0,0,0,0,0,0l4-22.4c0.2-1.2,1.4-2.1,2.6-1.8c0,0,0,0,0,0
		c1.2,0.2,2.1,1.4,1.8,2.6c0,0,0,0,0,0l-4,22.4C150.9,156,149.7,156.8,148.4,156.6C148.5,156.6,148.5,156.6,148.4,156.6z"/>
	<path class="st0" d="M131.6,153.5c-1.2-0.2-2.1-1.4-1.8-2.6l4-22.4c0.2-1.2,1.4-2.1,2.6-1.8c1.2,0.2,2.1,1.4,1.8,2.6l-4,22.4
		C134.1,152.9,132.9,153.7,131.6,153.5z"/>
	<path class="st3" d="M154,80.4l-23.7,27.9c-1.6,1.9-4.5,2.2-6.4,0.5l0,0c-1.9-1.6-2.2-4.5-0.5-6.4l23.7-28c1.6-1.9,4.5-2.2,6.4-0.5
		l0,0C155.4,75.6,155.7,78.5,154,80.4C154,80.4,154,80.4,154,80.4z"/>
	<path class="st3" d="M169.6,83.2l12.8,34.3c0.9,2.4,3.5,3.6,5.8,2.7c0,0,0,0,0,0l0,0c2.4-0.9,3.6-3.5,2.7-5.8c0,0,0,0,0,0L178.2,80
		c-0.9-2.4-3.5-3.6-5.9-2.7l0,0C169.9,78.2,168.7,80.8,169.6,83.2z"/>
	<path class="st4" d="M187.3,33.3c0-6-6.1-10.9-11.5-7.6c-4.3,2.6-8.2,7.6-8.2,7.6c-2.2-2.8-4.8-5.3-7.8-7.4
		c-5.5-3.4-11.9,1.2-11.9,7.4c0,10.9,19.7,25,19.7,25S187.3,44.2,187.3,33.3z"/>
</g>
<g id="TEXTS">
	<text transform="matrix(1 0 0 1 35.6566 236.5304)" class="st4 st5 st6">E</text>
	<text transform="matrix(1 0 0 1 61.6666 236.5304)" class="st4 st5 st6">-</text>
	<text transform="matrix(1 0 0 1 76.6666 236.5304)" class="st4 st5 st6">S</text>
	<text transform="matrix(1 0 0 1 102.4866 236.5304)" class="st4 st5 st6">t</text>
	<text transform="matrix(1 0 0 1 119.6766 236.5304)" class="st4 st5 st6">o</text>
	<text transform="matrix(1 0 0 1 146.2466 236.5304)" class="st4 st5 st6">r</text>
	<text transform="matrix(1 0 0 1 163.6466 236.5304)" class="st4 st5 st6">e</text>
	<text transform="matrix(1 0 0 1 0.4577 259.5491)" class="st7 st8 st9">E</text>
	<text transform="matrix(1 0 0 1 16.1577 259.5491)" class="st7 st8 st9">a</text>
	<text transform="matrix(1 0 0 1 30.4377 259.5491)" class="st7 st8 st9">s</text>
	<text transform="matrix(1 0 0 1 42.3977 259.5491)" class="st7 st8 st9">ypi</text>
	<text transform="matrix(1 0 0 1 79.3077 259.5491)" class="st7 st8 st9">c</text>
	<text transform="matrix(1 0 0 1 92.8577 259.5491)" class="st7 st8 st9">k</text>
	<text transform="matrix(1 0 0 1 107.7477 259.5491)" class="st7 st8 st9">..</text>
	<text transform="matrix(1 0 0 1 120.2077 259.5491)" class="st7 st8 st9">E</text>
	<text transform="matrix(1 0 0 1 135.9077 259.5491)" class="st7 st8 st9">a</text>
	<text transform="matrix(1 0 0 1 150.1977 259.5491)" class="st7 st8 st9">s</text>
	<text transform="matrix(1 0 0 1 162.1577 259.5491)" class="st7 st8 st9">y</text>
	<text transform="matrix(1 0 0 1 175.2677 259.5491)" class="st7 st8 st9">c</text>
	<text transform="matrix(1 0 0 1 188.8177 259.5491)" class="st7 st8 st9">h</text>
	<text transform="matrix(1 0 0 1 204.9677 259.5491)" class="st7 st8 st9">e</text>
	<text transform="matrix(1 0 0 1 219.5577 259.5491)" class="st7 st8 st9">c</text>
	<text transform="matrix(1 0 0 1 233.1077 259.5491)" class="st7 st8 st9">k</text>
</g>
</svg>
